#!OML:ASF E:\acrobat2\Project_11_07_03\Capture day 1\Session 1\Acrobat.ASF
:FULLY-SPECIFIED
:DEGREES
405
root 15.0185 30.0492 10.3864 -95.0015 -3.24212 137.946
lowerback 32.6437 -5.49928 -13.3229
upperback 6.70029 -14.4862 -8.65961
thorax -8.36435 -7.20505 2.85593
lowerneck -5.85263 -7.59326 -26.3956
upperneck -8.56644 -8.23164 27.2737
head 1.12689 -3.97065 13.0995
rclavicle -9.22361e-014 -4.8901e-014
rhumerus 39.1769 36.0655 -25.7558
rradius 73.9026
rwrist -1.52114
rhand -16.0313 -30.3375
rfingers 7.12502
rthumb 10.17 -60.0717
lclavicle -9.22361e-014 -4.8901e-014
lhumerus 0.184338 10.4309 39.2466
lradius 21.3095
lwrist 0.437133
lhand -11.228 -14.6455
lfingers 7.12502
lthumb 14.8008 14.806
rfemur -66.4692 -2.01763 23.725
rtibia 101.838
rfoot 10.3837 -7.53197
rtoes 18.8945
lfemur -68.3056 7.51384 2.83127
ltibia 82.2111
lfoot 23.0273 -4.43874
ltoes -1.63857
406
root 14.9409 29.7888 10.3373 -94.3256 -2.43222 139.147
lowerback 31.7988 -5.88962 -13.2814
upperback 5.92234 -14.7371 -8.05694
thorax -8.69695 -7.23743 3.50207
lowerneck -6.67884 -7.48005 -27.7554
upperneck -7.95764 -7.89052 27.2146
head 1.3846 -3.70928 13.3404
rclavicle -1.43125e-014 1.09332e-013
rhumerus 41.2277 35.3642 -23.0474
rradius 76.1693
rwrist -1.43522
rhand -16.6421 -30.2961
rfingers 7.12502
rthumb 9.5807 -60.0583
lclavicle -1.43125e-014 1.09332e-013
lhumerus -2.68304 10.3119 36.6756
lradius 25.6736
lwrist 13.3864
lhand -11.3695 -13.8653
lfingers 7.12502
lthumb 14.6645 15.5962
rfemur -63.2353 -2.23852 24.1583
rtibia 97.5657
rfoot 11.4795 -7.77384
rtoes 18.7773
lfemur -65.0989 6.91967 3.95815
ltibia 79.7208
lfoot 24.4254 -4.29602
ltoes -3.76375
407
root 14.8542 29.5072 10.2954 -93.6463 -1.8757 140.379
lowerback 30.6083 -6.35458 -12.8953
upperback 5.61477 -14.8739 -7.55182
thorax -9.16629 -7.23312 4.0656
lowerneck -7.52211 -7.41086 -29.1163
upperneck -7.28959 -7.57687 27.2256
head 1.6688 -3.46635 13.6104
rclavicle 1.36764e-013 -4.75095e-014
rhumerus 43.1596 34.3956 -20.5235
rradius 78.2131
rwrist -1.2523
rhand -17.2038 -30.2866
rfingers 7.12502
rthumb 9.03868 -60.073
lclavicle 1.36764e-013 -4.75095e-014
lhumerus -5.76894 11.5671 34.124
lradius 30.0402
lwrist 21.7445
lhand -11.676 -14.1038
lfingers 7.12502
lthumb 14.3692 15.3789
rfemur -59.9356 -2.58017 24.7539
rtibia 93.1372
rfoot 12.6085 -7.91116
rtoes 18.8874
lfemur -61.8775 6.28853 5.16257
ltibia 77.2009
lfoot 25.6248 -4.3591
ltoes -5.05442
408
root 14.759 29.2047 10.26 -92.9641 -1.49701 141.621
lowerback 29.5521 -6.73447 -12.4503
upperback 4.92903 -14.9163 -6.88625
thorax -9.33858 -7.18706 4.46577
lowerneck -8.32691 -7.37674 -30.2181
upperneck -6.5671 -7.3131 27.2135
head 1.96026 -3.26029 13.821
rclavicle 6.04305e-014 8.07066e-014
rhumerus 44.7737 33.1495 -18.376
rradius 79.9806
rwrist -0.95015
rhand -17.7774 -30.332
rfingers 7.12502
rthumb 8.48518 -60.1416
lclavicle 6.04305e-014 8.07066e-014
lhumerus -8.78348 13.1409 31.4833
lradius 33.976
lwrist 25.3952
lhand -12.5518 -15.1234
lfingers 7.12502
lthumb 13.5252 14.4173
rfemur -56.604 -3.08346 25.4312
rtibia 88.5556
rfoot 13.7664 -7.88727
rtoes 19.3505
lfemur -58.6313 5.60177 6.35289
ltibia 74.6088
lfoot 26.6106 -4.35371
ltoes -4.72376
409
root 14.6455 28.8801 10.257 -92.2804 -1.24958 142.863
lowerback 28.3866 -7.05392 -11.8606
upperback 4.30952 -14.8292 -6.26019
thorax -9.4311 -7.09863 4.68122
lowerneck -8.97517 -7.34366 -30.866
upperneck -5.89754 -7.10182 27.0779
head 2.19911 -3.10164 13.895
rclavicle -7.63333e-014 -2.36554e-014
rhumerus 45.9882 31.6814 -16.6166
rradius 81.4608
rwrist -0.605096
rhand -18.4296 -30.461
rfingers 7.12502
rthumb 7.85567 -60.295
lclavicle -7.63333e-014 -2.36554e-014
lhumerus -11.5391 14.5078 28.7456
lradius 37.2634
lwrist 24.835
lhand -14.1961 -16.7428
lfingers 7.12502
lthumb 11.94 12.8966
rfemur -53.3865 -3.77959 26.107
rtibia 83.9919
rfoot 15.2001 -7.81356
rtoes 19.7728
lfemur -55.5141 4.87649 7.49914
ltibia 72.0932
lfoot 27.4074 -4.28832
ltoes -3.36097
